# xmcd CD database file
#
# Track frame offsets:
#	150
#	11360
#	28497
#	38772
#	57507
#	72190
#	82757
#	99020
#	110002
#	126162
#	138770
#	158222
#	173527
#	186237
#	200005
#	213230
#	230735
#	242615
#	252977
#	275025
#
# Disc length: 3867 seconds
#
# Revision: 0
# Processed by: cddbd v1.5.2PL0 Copyright (c) Steve Scherf et al.
# Submitted via: CDex 1.70beta2
#
DISCID=150f1914
DTITLE=Dělová koule - Rychlejší koně
DYEAR=1900
DGENRE=Country
TTITLE0=Sedím za volantem rád
TTITLE1=Zatčení
TTITLE2=V Texasu je ode všeho kousek
TTITLE3=Sedím na Jeepu
TTITLE4=Evangelína
TTITLE5=Éra parních lokomitiv
TTITLE6=Kalifornský blues
TTITLE7=Kovbojský boty
TTITLE8=Dlouhá černá limuzína
TTITLE9=Medley's song
TTITLE10=Mobile bay
TTITLE11=Kalný vody
TTITLE12=Jsem volnej jak pták
TTITLE13=Řidičský blues
TTITLE14=Poslouchej Betty
TTITLE15=Tennesse Waltz
TTITLE16=Stvoření
TTITLE17=Vlak 97
TTITLE18=Bobby McGee
TTITLE19=Rychlejší koně
EXTD=
EXTT0=
EXTT1=
EXTT2=
EXTT3=
EXTT4=
EXTT5=
EXTT6=
EXTT7=
EXTT8=
EXTT9=
EXTT10=
EXTT11=
EXTT12=
EXTT13=
EXTT14=
EXTT15=
EXTT16=
EXTT17=
EXTT18=
EXTT19=
PLAYORDER=
